<svg width="12" height="13" viewBox="0 0 12 13" fill="none" xmlns="http://www.w3.org/2000/svg">
<path d="M5.72277 5.46182H6.85611V3.76182H8.55611V2.62848H6.85611V0.928482H5.72277V2.62848H4.02277V3.76182H5.72277V5.46182ZM3.45611 10.5618C2.83277 10.5618 2.32844 11.0718 2.32844 11.6951C2.32844 12.3185 2.83277 12.8285 3.45611 12.8285C4.07944 12.8285 4.58944 12.3185 4.58944 11.6951C4.58944 11.0718 4.07944 10.5618 3.45611 10.5618ZM9.12278 10.5618C8.49944 10.5618 7.99511 11.0718 7.99511 11.6951C7.99511 12.3185 8.49944 12.8285 9.12278 12.8285C9.74611 12.8285 10.2561 12.3185 10.2561 11.6951C10.2561 11.0718 9.74611 10.5618 9.12278 10.5618ZM3.55244 8.72015L3.56944 8.65215L4.07944 7.72848H8.30111C8.72611 7.72848 9.10011 7.49615 9.29278 7.14482L11.4801 3.17248L10.4941 2.62848H10.4884L9.86511 3.76182L8.30111 6.59515H4.32311L4.24944 6.44215L2.98011 3.76182L2.44177 2.62848L1.90911 1.49515H0.0561066V2.62848H1.18944L3.22944 6.92948L2.46444 8.31782C2.37377 8.47648 2.32277 8.66348 2.32277 8.86182C2.32277 9.48515 2.83277 9.99515 3.45611 9.99515H10.2561V8.86182H3.69411C3.62044 8.86182 3.55244 8.79948 3.55244 8.72015Z" fill="white"/>
</svg>
